<?xml version="1.0" encoding="UTF-8" standalone="no"?>
<svg
   xmlns:dc="http://purl.org/dc/elements/1.1/"
   xmlns:cc="http://creativecommons.org/ns#"
   xmlns:rdf="http://www.w3.org/1999/02/22-rdf-syntax-ns#"
   xmlns:svg="http://www.w3.org/2000/svg"
   xmlns="http://www.w3.org/2000/svg"
   xmlns:sodipodi="http://sodipodi.sourceforge.net/DTD/sodipodi-0.dtd"
   xmlns:inkscape="http://www.inkscape.org/namespaces/inkscape"
   inkscape:version="1.0 (4035a4fb49, 2020-05-01)"
   sodipodi:docname="ml.svg"
   id="svg12"
   version="1.1"
   style="-ms-transform: rotate(360deg); -webkit-transform: rotate(360deg); transform: rotate(360deg);"
   viewBox="0 0 32 32"
   preserveAspectRatio="xMidYMid meet"
   height="32"
   width="32">
  <metadata
     id="metadata18">
    <rdf:RDF>
      <cc:Work
         rdf:about="">
        <dc:format>image/svg+xml</dc:format>
        <dc:type
           rdf:resource="http://purl.org/dc/dcmitype/StillImage" />
      </cc:Work>
    </rdf:RDF>
  </metadata>
  <defs
     id="defs16" />
  <sodipodi:namedview
     inkscape:current-layer="svg12"
     inkscape:window-maximized="1"
     inkscape:window-y="-9"
     inkscape:window-x="-9"
     inkscape:cy="18.922941"
     inkscape:cx="15.859324"
     inkscape:zoom="18.73833"
     showgrid="false"
     id="namedview14"
     inkscape:window-height="1001"
     inkscape:window-width="1920"
     inkscape:pageshadow="2"
     inkscape:pageopacity="0"
     guidetolerance="10"
     gridtolerance="10"
     objecttolerance="10"
     borderopacity="1"
     bordercolor="#666666"
     pagecolor="#ffffff" />
  <path
     style="fill:#000000;fill-opacity:1"
     id="path2"
     fill="#626262"
     d="M27 24a2.96 2.96 0 0 0-1.285.3l-4.3-4.3H18v2h2.586l3.715 3.715A2.966 2.966 0 0 0 24 27a3 3 0 1 0 3-3zm0 4a1 1 0 1 1 1-1a1 1 0 0 1-1 1z" />
  <path
     style="fill:#000000;fill-opacity:1"
     id="path4"
     fill="#626262"
     d="M27 13a2.995 2.995 0 0 0-2.816 2H18v2h6.184A2.995 2.995 0 1 0 27 13zm0 4a1 1 0 1 1 1-1a1 1 0 0 1-1 1z" />
  <path
     style="fill:#000000;fill-opacity:1"
     id="path6"
     fill="#626262"
     d="M27 2a3.003 3.003 0 0 0-3 3a2.966 2.966 0 0 0 .348 1.373L20.596 10H18v2h3.404l4.4-4.252A2.999 2.999 0 1 0 27 2zm0 4a1 1 0 1 1 1-1a1 1 0 0 1-1 1z" />
  <path
     style="fill:#000000;fill-opacity:1"
     id="path8"
     fill="#626262"
     d="M18 6h2V4h-2a3.976 3.976 0 0 0-3 1.382A3.976 3.976 0 0 0 12 4h-1a9.01 9.01 0 0 0-9 9v6a9.01 9.01 0 0 0 9 9h1a3.976 3.976 0 0 0 3-1.382A3.976 3.976 0 0 0 18 28h2v-2h-2a2.002 2.002 0 0 1-2-2V8a2.002 2.002 0 0 1 2-2zm-6 20h-1a7.005 7.005 0 0 1-6.92-6H6v-2H4v-4h3a3.003 3.003 0 0 0 3-3V9H8v2a1 1 0 0 1-1 1H4.08A7.005 7.005 0 0 1 11 6h1a2.002 2.002 0 0 1 2 2v4h-2v2h2v4h-2a3.003 3.003 0 0 0-3 3v2h2v-2a1 1 0 0 1 1-1h2v4a2.002 2.002 0 0 1-2 2z" />
</svg>
